<svg width="32" height="32" viewBox="0 0 32 32" fill="none" xmlns="http://www.w3.org/2000/svg">
<g clip-path="url(#clip0_8403_573)">
<g clip-path="url(#clip1_8403_573)">
<path d="M25.5862 4.28191C25.3239 3.8846 24.9408 3.87319 24.5041 3.86019C24.4547 3.85871 24.4045 3.85722 24.3538 3.85514C24.3151 3.85338 24.2725 3.85406 24.2279 3.85477C24.0508 3.85758 23.8437 3.86087 23.7393 3.7137C23.6183 3.54306 23.6298 3.21331 23.6393 2.94108C23.6423 2.85506 23.6451 2.77473 23.6434 2.70704C23.6264 2.07466 23.591 1.4029 23.3442 1.17834C23.1581 1.00985 22.6013 1.03319 22.0879 1.05472C21.9215 1.06169 21.7596 1.06848 21.6163 1.06848H10.6876C10.4675 1.06848 10.2369 1.05076 10.0102 1.03335C9.56863 0.999413 9.14231 0.966655 8.83957 1.06848C8.40021 1.21698 8.37046 1.99734 8.34244 2.73215L8.34093 2.77169C8.31741 3.37831 8.16543 3.84639 7.66173 3.79924C7.07589 3.74529 6.49294 3.72828 6.22806 4.25275C5.91523 4.87329 5.97975 5.52286 6.09531 6.68634C6.11182 6.85254 6.12937 7.02922 6.14701 7.2178H25.7552C25.7664 7.07996 25.7784 6.94389 25.7901 6.81002C25.8819 5.76325 25.9619 4.85121 25.5862 4.28191Z" fill="#8047F8"/>
<path fill-rule="evenodd" clip-rule="evenodd" d="M7.67403 8.37174C7.98028 12.4716 8.28317 16.5761 8.58608 20.6807L8.58626 20.6832C8.75073 22.9118 8.9152 25.1405 9.0802 27.3685H9.70585C9.74849 27.7172 9.79727 28.1478 9.8487 28.6017C9.9531 29.5231 10.0684 30.5411 10.1654 31.1666H10.2346C10.8719 30.936 15.2775 29.0733 15.2794 21.6575C15.2786 21.6363 15.2793 21.6152 15.2816 21.5942H14.1931C14.1404 21.5937 14.0894 21.5763 14.0478 21.5446C14.0062 21.513 13.9764 21.4689 13.9629 21.4191C13.8568 21.1599 13.7713 20.8931 13.7071 20.6211C13.0668 20.9788 12.5583 21.5251 12.2541 22.182C11.9654 21.5092 11.9276 20.7586 12.1474 20.0614C12.3671 19.3641 12.8305 18.7645 13.4564 18.3674C13.4645 16.2035 14.2836 14.1175 15.7587 12.5043L15.7817 12.4843C15.8245 12.4476 15.8794 12.4272 15.9364 12.4268C15.9693 12.427 16.0018 12.434 16.0318 12.4472C16.0622 12.4605 16.0894 12.48 16.1117 12.5043C17.604 14.1196 18.4187 16.2257 18.3934 18.4024C19.0311 18.7885 19.5038 19.3876 19.724 20.0887C19.9442 20.7897 19.8968 21.545 19.5906 22.2145C19.2881 21.5565 18.7792 21.0099 18.1376 20.6537C18.0984 20.9173 18.0263 21.1752 17.9228 21.4216C17.8869 21.5266 17.8153 21.5942 17.7437 21.5942H16.5829C16.5848 21.6067 16.5861 21.6194 16.5868 21.6321L16.5873 21.635V21.6411C16.5877 21.652 16.5877 21.663 16.5873 21.6739C16.6032 29.3027 21.2873 31.0342 21.6821 31.1666H21.8171C21.8516 30.5658 21.9639 29.7367 22.0733 28.9284C22.1487 28.3713 22.2228 27.8242 22.2691 27.3685H22.902C23.1046 24.5621 23.3129 21.7637 23.5213 18.9651L23.5214 18.9636L23.5214 18.9628C23.7879 15.3831 24.0545 11.8034 24.3089 8.20696H7.71456C7.6668 8.21619 7.67005 8.29348 7.67403 8.37174ZM15.9364 12.4268L15.9352 12.4267H15.9377L15.9364 12.4268Z" fill="#8047F8"/>
<path d="M31.3214 5.55857C31.3214 4.54653 31.6739 3.76219 32.3788 3.20557C33.0966 2.6363 34.1733 2.35166 35.6088 2.35166C36.5573 2.35166 37.3647 2.44021 38.0312 2.61732V5.23598C37.3135 5.02092 36.6021 4.91339 35.8972 4.91339C35.205 4.91339 34.7564 4.99562 34.5514 5.16008C34.3463 5.31188 34.2437 5.53959 34.2437 5.84321V12.2191C34.2437 12.8263 34.7244 13.1299 35.6857 13.1299C36.6598 13.1299 37.4609 13.035 38.0889 12.8453V15.407C37.3968 15.5968 36.5573 15.6916 35.5703 15.6916C34.1348 15.6916 33.0646 15.4133 32.3596 14.8567C31.6675 14.3001 31.3214 13.5158 31.3214 12.5037V5.55857Z" fill="#403937"/>
<path d="M43.705 7.36127C43.705 6.88055 43.4358 6.64019 42.8975 6.64019C42.3592 6.64019 42.09 6.88055 42.09 7.36127V12.6365C42.09 13.1173 42.3592 13.3576 42.8975 13.3576C43.4358 13.3576 43.705 13.1173 43.705 12.6365V7.36127ZM39.2446 7.26639C39.2446 6.30495 39.5458 5.55857 40.1482 5.02725C40.7634 4.48327 41.6798 4.21129 42.8975 4.21129C44.1151 4.21129 45.0251 4.48327 45.6275 5.02725C46.2428 5.55857 46.5504 6.30495 46.5504 7.26639V12.7314C46.5504 13.6929 46.2428 14.4456 45.6275 14.9895C45.0251 15.5209 44.1151 15.7865 42.8975 15.7865C41.6798 15.7865 40.7634 15.5209 40.1482 14.9895C39.5458 14.4456 39.2446 13.6929 39.2446 12.7314V7.26639Z" fill="#403937"/>
<path d="M48.419 4.26822C48.419 2.13028 49.5598 1.06131 51.8412 1.06131C52.136 1.06131 52.4885 1.09293 52.8987 1.15618V3.35738C52.6936 3.33208 52.5013 3.31943 52.3219 3.31943C51.6682 3.31943 51.3414 3.62304 51.3414 4.23026V4.40105H52.8987V6.64019H51.3414V15.5968H48.419V6.64019H47.3232V4.40105H48.419V4.26822Z" fill="#403937"/>
<path d="M54.0892 4.26822C54.0892 2.13028 55.2299 1.06131 57.5114 1.06131C57.8062 1.06131 58.1586 1.09293 58.5688 1.15618V3.35738C58.3637 3.33208 58.1715 3.31943 57.992 3.31943C57.3383 3.31943 57.0115 3.62304 57.0115 4.23026V4.40105H58.5688V6.64019H57.0115V15.5968H54.0892V6.64019H52.9933V4.40105H54.0892V4.26822Z" fill="#403937"/>
<path d="M59.2402 12.4088V7.26639C59.2402 6.30495 59.5414 5.55857 60.1438 5.02725C60.7462 4.48327 61.6562 4.21129 62.8739 4.21129C65.2194 4.21129 66.3922 5.22966 66.3922 7.26639V11.1185H62.0279V12.1811C62.0279 12.5606 62.1305 12.8326 62.3356 12.9971C62.5534 13.1489 63.0213 13.2248 63.739 13.2248C64.4696 13.2248 65.2643 13.0983 66.123 12.8453V15.3501C65.2258 15.5904 64.2645 15.7106 63.2392 15.7106C60.5732 15.7106 59.2402 14.61 59.2402 12.4088ZM62.0279 8.93626H63.7198V7.30434C63.7198 6.82362 63.4378 6.58326 62.8739 6.58326C62.3099 6.58326 62.0279 6.82362 62.0279 7.30434V8.93626Z" fill="#403937"/>
<path d="M67.5388 12.4088V7.26639C67.5388 6.30495 67.8401 5.55857 68.4425 5.02725C69.0449 4.48327 69.9549 4.21129 71.1725 4.21129C73.5181 4.21129 74.6909 5.22966 74.6909 7.26639V11.1185H70.3266V12.1811C70.3266 12.5606 70.4291 12.8326 70.6342 12.9971C70.8521 13.1489 71.3199 13.2248 72.0377 13.2248C72.7683 13.2248 73.5629 13.0983 74.4217 12.8453V15.3501C73.5245 15.5904 72.5632 15.7106 71.5378 15.7106C68.8718 15.7106 67.5388 14.61 67.5388 12.4088ZM70.3266 8.93626H72.0185V7.30434C72.0185 6.82362 71.7365 6.58326 71.1725 6.58326C70.6086 6.58326 70.3266 6.82362 70.3266 7.30434V8.93626Z" fill="#403937"/>
<path d="M35.9489 22.5837C35.9489 21.6496 35.4494 21.1825 34.4503 21.1825H32.857V29.6992H34.4503C35.4494 29.6992 35.9489 29.2217 35.9489 28.2668V22.5837ZM31.737 20.2171H34.5134C35.3547 20.2171 35.991 20.4299 36.4222 20.8555C36.8534 21.2811 37.069 21.852 37.069 22.5682V28.2979C37.069 29.0349 36.8586 29.6161 36.438 30.0417C36.0173 30.4673 35.3863 30.6801 34.545 30.6801H31.737V20.2171Z" fill="#403937"/>
<path d="M38.9122 28.4225V24.094C38.9122 23.3571 39.1225 22.7706 39.5432 22.3346C39.9744 21.8883 40.6211 21.6651 41.4835 21.6651C42.3459 21.6651 42.9821 21.8883 43.3923 22.3346C43.813 22.7706 44.0233 23.3571 44.0233 24.094V26.8032H40.0164V28.3757C40.0164 28.8428 40.1637 29.1906 40.4581 29.4189C40.7526 29.6473 41.2101 29.7615 41.8306 29.7615C42.451 29.7615 43.0926 29.668 43.7551 29.4812V30.5088C43.2293 30.6749 42.6035 30.7579 41.8779 30.7579C39.9007 30.7579 38.9122 29.9794 38.9122 28.4225ZM40.0164 25.8846H42.9506V24.094C42.9506 23.1183 42.4616 22.6305 41.4835 22.6305C40.5055 22.6305 40.0164 23.1183 40.0164 24.094V25.8846Z" fill="#403937"/>
<path d="M45.9407 19.4698H47.0607V30.6801H45.9407V19.4698Z" fill="#403937"/>
<path d="M49.7896 20.8244C49.3373 20.8244 49.1112 20.5856 49.1112 20.1081C49.1112 19.6307 49.3373 19.3919 49.7896 19.3919C50.2523 19.3919 50.4837 19.6307 50.4837 20.1081C50.4837 20.5856 50.2523 20.8244 49.7896 20.8244ZM49.2374 21.8831H50.3575V30.6801H49.2374V21.8831Z" fill="#403937"/>
<path d="M56.1309 21.8208H57.2667L55.279 30.6801H53.7015L51.7139 21.8208H52.8655L53.7331 25.8846L54.5061 29.9016C54.8216 28.1785 55.3632 25.4849 56.1309 21.8208Z" fill="#403937"/>
<path d="M58.4615 28.4225V24.094C58.4615 23.3571 58.6719 22.7706 59.0925 22.3346C59.5237 21.8883 60.1705 21.6651 61.0329 21.6651C61.8952 21.6651 62.5315 21.8883 62.9416 22.3346C63.3623 22.7706 63.5726 23.3571 63.5726 24.094V26.8032H59.5658V28.3757C59.5658 28.8428 59.713 29.1906 60.0075 29.4189C60.3019 29.6473 60.7594 29.7615 61.3799 29.7615C62.0004 29.7615 62.6419 29.668 63.3045 29.4812V30.5088C62.7786 30.6749 62.1529 30.7579 61.4272 30.7579C59.4501 30.7579 58.4615 29.9794 58.4615 28.4225ZM59.5658 25.8846H62.4999V24.094C62.4999 23.1183 62.0109 22.6305 61.0329 22.6305C60.0548 22.6305 59.5658 23.1183 59.5658 24.094V25.8846Z" fill="#403937"/>
<path d="M68.3927 21.7741H68.787V22.8329H68.2507C67.8721 22.8329 67.5303 22.9315 67.2253 23.1287C67.1307 23.191 66.9256 23.3311 66.6101 23.5491V30.6801H65.4901V21.8208H66.5628V22.4903C66.5943 22.4696 66.6732 22.4125 66.7994 22.3191C66.9361 22.2256 67.015 22.1737 67.036 22.1634C67.0676 22.1426 67.1359 22.1011 67.2411 22.0388C67.3568 21.9765 67.4409 21.9402 67.4935 21.9298C67.5566 21.9091 67.6407 21.8831 67.7459 21.852C67.9036 21.8001 68.1192 21.7741 68.3927 21.7741Z" fill="#403937"/>
<path d="M73.5859 21.8208H74.7059L72.245 33H71.1723L71.6613 30.6801H71.1092L69.1531 21.8208H70.2889L71.2354 26.2271L71.9295 29.9016C72.1398 28.6768 72.3712 27.4519 72.6236 26.2271L73.5859 21.8208Z" fill="#403937"/>
</g>
</g>
<defs>
<clipPath id="clip0_8403_573">
<rect width="32" height="32" fill="white"/>
</clipPath>
<clipPath id="clip1_8403_573">
<rect width="21" height="32" fill="white" transform="translate(6 1)"/>
</clipPath>
</defs>
</svg>
