<svg width="32" height="32" viewBox="0 0 32 32" fill="none" xmlns="http://www.w3.org/2000/svg">
<path d="M15.7754 2.60662C18.5532 6.13311 20.0361 10.4818 19.9823 14.9442V16.0094L20.8988 16.5671C22.0829 17.2839 22.9661 18.3958 23.3873 19.7C23.0175 19.4277 22.6306 19.1787 22.229 18.9544L19.785 17.5821L19.3458 20.3517C19.3078 20.5964 19.2568 20.839 19.1931 21.0785H12.3449C12.2431 20.7652 12.1603 20.4519 12.084 20.1261L11.5302 17.6197L9.27722 18.8729C8.90081 19.0834 8.5374 19.3157 8.18889 19.5684C8.61828 18.2793 9.483 17.1737 10.6392 16.4355L11.5112 15.8778V14.8878C11.5269 10.4436 13.0276 6.12789 15.7817 2.60662H15.7754ZM15.7817 0C15.6389 0.000346872 15.501 0.0515327 15.3935 0.144116L15.3362 0.194243C11.6662 4.23529 9.62824 9.46075 9.60817 14.8815C8.05078 15.8763 6.89797 17.3782 6.35119 19.1249C5.80442 20.8715 5.89845 22.7517 6.61686 24.437C7.37366 22.7915 8.63878 21.4232 10.2319 20.5271C10.3917 21.2085 10.6044 21.8767 10.8683 22.5259C10.9018 22.6507 10.976 22.7613 11.0795 22.8405C11.183 22.9198 11.31 22.9633 11.4411 22.9646H20.2751C20.4533 22.9646 20.6315 22.7954 20.7206 22.5322C20.9781 21.915 21.1577 21.2689 21.2552 20.6086C22.8513 21.5009 24.1175 22.8703 24.8702 24.5185C25.632 22.8415 25.7499 20.9494 25.2022 19.1933C24.6544 17.4372 23.4781 15.9363 21.8916 14.9693C21.9546 9.5165 19.9274 4.24076 16.2145 0.194243C16.1592 0.133383 16.0916 0.0846409 16.0159 0.0511785C15.9403 0.017716 15.8583 0.000279722 15.7754 0L15.7817 0Z" fill="#4EA8DE"/>
<path d="M15.7753 14.3615C15.2865 14.3614 14.8086 14.2189 14.4019 13.9519C13.9952 13.6849 13.6778 13.3054 13.4899 12.8611C13.302 12.4168 13.2518 11.9277 13.3458 11.4554C13.4398 10.9831 13.6737 10.5487 14.0181 10.2071C14.3624 9.8655 14.8017 9.63188 15.2807 9.53572C15.7597 9.43956 16.2569 9.48516 16.7096 9.66676C17.1623 9.84837 17.5503 10.1579 17.8246 10.5562C18.099 10.9546 18.2474 11.424 18.2511 11.9052V11.9052C18.2587 12.2171 18.2039 12.5274 18.0896 12.8184C17.9754 13.1094 17.804 13.3754 17.5853 13.6011C17.3666 13.8269 17.1049 14.0081 16.8151 14.1342C16.5253 14.2604 16.2131 14.3291 15.8963 14.3364C15.8562 14.3427 15.8154 14.3427 15.7753 14.3364V14.3615Z" fill="#4EA8DE"/>
<path d="M19.2185 24.5248C19.0593 24.5198 18.9006 24.5461 18.7519 24.6023C18.6031 24.6584 18.4672 24.7433 18.3522 24.8518C18.2372 24.9604 18.1454 25.0905 18.0821 25.2345C18.0189 25.3784 17.9854 25.5334 17.9838 25.6902V29.3871C17.9838 29.7095 18.1139 30.0187 18.3455 30.2467C18.577 30.4746 18.8911 30.6027 19.2185 30.6027C19.546 30.6027 19.8601 30.4746 20.0916 30.2467C20.3232 30.0187 20.4532 29.7095 20.4532 29.3871V25.7404C20.4583 25.5841 20.4318 25.4284 20.3751 25.2824C20.3185 25.1363 20.2328 25.0028 20.1233 24.8897C20.0137 24.7765 19.8823 24.686 19.7368 24.6233C19.5913 24.5607 19.4346 24.5272 19.2758 24.5248H19.2185Z" fill="#5E60CE"/>
<path d="M12.3449 24.5248C12.1829 24.5163 12.0209 24.5401 11.8684 24.5945C11.716 24.649 11.5762 24.7331 11.4575 24.8418C11.3387 24.9506 11.2434 25.0817 11.1771 25.2275C11.1109 25.3732 11.0751 25.5306 11.072 25.6902V29.3871C11.072 29.7095 11.202 30.0187 11.4336 30.2467C11.6652 30.4746 11.9792 30.6027 12.3067 30.6027C12.6341 30.6027 12.9482 30.4746 13.1797 30.2467C13.4113 30.0187 13.5414 29.7095 13.5414 29.3871V25.7404C13.5465 25.5841 13.5199 25.4284 13.4633 25.2823C13.4066 25.1363 13.321 25.0028 13.2114 24.8897C13.1018 24.7765 12.9704 24.686 12.8249 24.6233C12.6794 24.5607 12.5227 24.5272 12.364 24.5248H12.3449Z" fill="#5E60CE"/>
<path d="M15.6862 24.5248C15.5274 24.5214 15.3695 24.549 15.2215 24.6057C15.0735 24.6625 14.9383 24.7474 14.8236 24.8557C14.709 24.9639 14.6171 25.0933 14.5533 25.2365C14.4894 25.3797 14.4548 25.5339 14.4515 25.6902V30.7844C14.4515 31.1068 14.5816 31.416 14.8132 31.644C15.0447 31.8719 15.3588 32 15.6862 32C16.0137 32 16.3278 31.8719 16.5593 31.644C16.7909 31.416 16.921 31.1068 16.921 30.7844V25.7717C16.926 25.6154 16.8995 25.4597 16.8428 25.3137C16.7862 25.1676 16.7006 25.0341 16.591 24.921C16.4814 24.8079 16.35 24.7173 16.2045 24.6547C16.059 24.592 15.9023 24.5585 15.7435 24.5561L15.6862 24.5248Z" fill="#5E60CE"/>
</svg>
