<svg width="32" height="32" viewBox="0 0 32 32" fill="none" xmlns="http://www.w3.org/2000/svg">
<path d="M13.1697 15.497L13.1696 15.4969L2.50488 4.82891C2.50483 4.82886 2.50478 4.82881 2.50472 4.82875C2.50468 4.82871 2.50463 4.82866 2.50459 4.82862C2.10303 4.4277 1.45246 4.42777 1.05108 4.82862C1.05105 4.82864 1.05103 4.82867 1.051 4.8287M13.1697 15.497L0.520667 6.81281C-0.173556 6.11837 -0.173556 4.99281 0.520667 4.29837L1.05083 4.82887C1.05088 4.82881 1.05094 4.82875 1.051 4.8287M13.1697 15.497C13.5712 15.8986 13.5712 16.5459 13.1697 16.9475L13.1696 16.9475L2.50467 27.6141C2.10311 28.0157 1.45249 28.0156 1.05108 27.6142C0.649639 27.2126 0.649639 26.5652 1.05108 26.1636L1.05111 26.1636L10.4582 16.7525L10.9883 16.2222L10.4582 15.692L1.05108 6.28257M13.1697 15.497L1.05108 6.28257M1.051 4.8287C0.649646 5.23027 0.649666 5.881 1.05106 6.28255M1.051 4.8287L1.05106 6.28255M1.05108 6.28257C1.05108 6.28256 1.05107 6.28255 1.05106 6.28255M1.05108 6.28257L1.05106 6.28255M30.2222 25.8611C30.7913 25.8611 31.25 26.3198 31.25 26.8889C31.25 27.458 30.7913 27.9167 30.2222 27.9167H14.2222C13.6531 27.9167 13.1944 27.458 13.1944 26.8889C13.1944 26.3198 13.6531 25.8611 14.2222 25.8611H30.2222Z" stroke="#3294F8" stroke-width="1.5"/>
</svg>
